<svg class="svg-icon" style="width: 1em; height: 1em;vertical-align: middle;fill: currentColor;overflow: hidden;" viewBox="0 0 1024 1024" version="1.1" xmlns="http://www.w3.org/2000/svg"><path d="M675.86048 122.88 675.86048 81.92C675.86048 36.67968 639.1808 0 593.94048 0L430.10048 0C384.86016 0 348.18048 36.67968 348.18048 81.92L348.18048 122.88 143.36 122.88 143.36 163.84 189.44 163.84 245.73952 962.56C245.73952 962.56 258.62144 1024 307.17952 1024L491.49952 1024 532.45952 1024 716.77952 1024C765.35808 1024 778.24 962.56 778.24 962.56L832.86016 163.84 880.64 163.84 880.64 122.88 675.86048 122.88 675.86048 122.88ZM389.14048 81.92C389.14048 59.2896 407.49056 40.96 430.10048 40.96L593.94048 40.96C616.5504 40.96 634.90048 59.31008 634.90048 81.92L634.90048 122.88 389.14048 122.88 389.14048 81.92 389.14048 81.92ZM737.30048 942.05952C733.85984 973.7216 716.8 983.01952 716.8 983.01952L532.48 983.01952 491.52 983.01952 307.2 983.01952C307.2 983.01952 290.16064 973.7216 286.72 942.05952 283.29984 910.39744 230.4 163.81952 230.4 163.81952L790.17984 163.81952C790.20032 163.81952 740.72064 910.39744 737.30048 942.05952L737.30048 942.05952ZM675.86048 245.76 634.90048 245.76 614.42048 901.12 655.38048 901.12 675.86048 245.76ZM409.62048 901.12 389.14048 245.76 348.16 245.76 368.64 901.12 409.62048 901.12ZM491.52 245.76 532.48 245.76 532.48 901.12 491.52 901.12 491.52 245.76Z"  /></svg>